<svg xmlns="http://www.w3.org/2000/svg" width="26" height="27" viewBox="0 0 26 27">
    <g fill="none" fill-rule="evenodd">
        <g>
            <g>
                <g>
                    <g>
                        <path fill="#FC4C02" d="M25.65 4.281C25.638 1.915 23.7 0 21.313 0c-.593 0-1.175.112-1.674.332L3.836 6.988C1.584 7.933 0 10.146 0 12.72v8.418c0 2.376 1.941 4.302 4.337 4.302.608 0 1.186-.125 1.711-.349l15.736-6.626c2.268-.939 3.866-3.16 3.866-5.745V4.281z" transform="translate(-175 -495) translate(54 495) translate(121) translate(0 .029)"/>
                        <path fill="#FEFEFE" d="M11.05 16.047c-.219 0-.395-.167-.395-.373V7.81c0-.206.176-.373.394-.373.218 0 .395.167.395.373v7.865c0 .206-.177.373-.395.373M14.206 15.683V9.756c0-.2-.177-.363-.395-.363-.218 0-.394.163-.394.363v5.927c0 .2.176.364.394.364.218 0 .395-.163.395-.364M14.206 7.839v-.023c0-.21-.177-.38-.395-.38-.218 0-.394.17-.394.38v.023c0 .21.176.38.394.38.218 0 .395-.17.395-.38M8.575 15.017c.142-.147.142-.384 0-.53-.141-.147-.371-.147-.512 0-1.046 1.08-2.746 1.08-3.792 0-1.045-1.082-1.045-2.842 0-3.923.506-.524 1.18-.812 1.896-.812s1.39.288 1.895.812c.142.147.372.147.513 0 .142-.147.142-.384 0-.53-.643-.666-1.498-1.032-2.408-1.032-.91 0-1.765.366-2.409 1.032-1.328 1.373-1.328 3.608 0 4.983.664.686 1.536 1.03 2.41 1.03.871 0 1.743-.344 2.407-1.03M16.54 17.244v-4.78c0-1.503 1.255-2.725 2.796-2.725 1.542 0 2.796 1.222 2.796 2.725 0 1.503-1.254 2.725-2.796 2.725-.888 0-1.49-.33-1.495-.333-.18-.103-.412-.044-.517.131-.105.176-.045.402.135.505.031.018.773.434 1.877.434 1.959 0 3.552-1.553 3.552-3.462 0-1.91-1.593-3.462-3.552-3.462-1.958 0-3.551 1.553-3.551 3.462v4.78c0 .203.17.368.378.368s.378-.165.378-.368" transform="translate(-175 -495) translate(54 495) translate(121) translate(0 .029)"/>
                    </g>
                </g>
            </g>
        </g>
    </g>
</svg>
